<svg width="32" height="32" viewBox="0 0 32 32" fill="none" xmlns="http://www.w3.org/2000/svg">
<path fill-rule="evenodd" clip-rule="evenodd" d="M14.5763 10.6136C14.5763 12.835 12.7781 14.6354 10.5594 14.6354C8.34065 14.6354 6.54297 12.835 6.54297 10.6136C6.54297 8.39266 8.34065 6.59216 10.5594 6.59216C12.7781 6.59216 14.5763 8.39266 14.5763 10.6136Z" fill="#000000"/>
<path fill-rule="evenodd" clip-rule="evenodd" d="M25.4169 10.6137C25.4169 12.8351 23.6188 14.6355 21.3998 14.6355C19.1816 14.6355 17.3835 12.8351 17.3835 10.6137C17.3835 8.39266 19.1816 6.59216 21.3998 6.59216C23.6188 6.59216 25.4169 8.39266 25.4169 10.6137Z" fill="#000000"/>
<path fill-rule="evenodd" clip-rule="evenodd" d="M14.5763 21.3862C14.5763 23.6075 12.7781 25.4079 10.5594 25.4079C8.34065 25.4079 6.54297 23.6075 6.54297 21.3862C6.54297 19.1652 8.34065 17.3647 10.5594 17.3647C12.7781 17.3647 14.5763 19.1652 14.5763 21.3862Z" fill="#000000"/>
<path fill-rule="evenodd" clip-rule="evenodd" d="M25.4169 21.3862C25.4169 23.6075 23.6188 25.4079 21.3998 25.4079C19.1816 25.4079 17.3835 23.6075 17.3835 21.3862C17.3835 19.1652 19.1816 17.3647 21.3998 17.3647C23.6188 17.3647 25.4169 19.1652 25.4169 21.3862Z" fill="#000000"/>
<path fill-rule="evenodd" clip-rule="evenodd" d="M15.9801 0.666667C7.53588 0.666667 0.665839 7.54517 0.665839 16C0.665839 24.4548 7.53588 31.3333 15.9801 31.3333C24.4246 31.3333 31.2944 24.4548 31.2944 16C31.2944 7.54517 24.4246 0.666667 15.9801 0.666667ZM15.9801 32C7.16867 32 0 24.8225 0 16C0 7.17758 7.16867 0 15.9801 0C24.7916 0 31.9603 7.17758 31.9603 16C31.9603 24.8225 24.7916 32 15.9801 32Z" fill="#000000"/>
</svg>
